
<svg version="1.0" xmlns="http://www.w3.org/2000/svg"
 width="1930.000000pt" height="2004.000000pt" viewBox="0 0 1930.000000 2004.000000"
 preserveAspectRatio="xMidYMid meet">
<g transform="translate(0.000000,2004.000000) scale(0.100000,-0.100000)"
fill="#000000" stroke="none">
<path d="M8620 19980 c-509 -209 -6864 -2918 -6887 -2936 -18 -13 -45 -46 -60
-72 l-28 -47 -3 -4624 -2 -4624 24 -52 c13 -28 41 -66 62 -84 28 -24 626 -283
2174 -945 l2135 -911 5 -1465 5 -1465 22 -40 c62 -115 183 -167 304 -132 48
15 179 118 1223 971 l1168 954 42 -18 c22 -10 718 -303 1546 -651 1468 -616
1507 -632 1570 -632 64 0 121 23 3625 1502 1958 826 3580 1514 3605 1529 67
41 104 107 108 196 6 118 -40 197 -142 245 -33 15 -519 196 -1079 402 l-1017
374 902 5 c990 5 931 2 1007 66 19 15 44 51 57 79 l24 50 0 4520 c0 4356 -1
4521 -19 4560 -23 52 -99 121 -148 135 -21 6 -753 60 -1628 119 l-1590 108
-3416 1452 c-3369 1431 -3417 1451 -3480 1450 -38 0 -82 -8 -109 -19z m3182
-1816 c1679 -713 3065 -1302 3080 -1308 25 -11 -215 -115 -3048 -1325 -1691
-722 -3083 -1315 -3094 -1318 -28 -7 -6196 2630 -6173 2639 1921 820 6162
2616 6170 2613 7 -2 1386 -588 3065 -1301z m4789 -2695 c592 -585 1077 -1066
1078 -1069 1 -5 -6370 -2692 -6405 -2702 -13 -4 -2088 2132 -2079 2140 10 11
6310 2700 6319 2698 5 -1 494 -481 1087 -1067z m796 996 c604 -41 1101 -75
1106 -75 4 0 7 -1894 7 -4210 l0 -4210 -1340 0 -1340 0 0 2544 0 2544 168 71
c92 39 637 269 1212 511 575 242 1063 452 1085 468 59 41 95 117 95 201 0 43
-7 80 -19 106 -13 27 -173 193 -502 520 -492 488 -1469 1455 -1569 1552 -52
50 -53 53 -28 53 14 0 520 -34 1125 -75z m-12184 -1312 c1670 -713 3037 -1300
3036 -1303 0 -3 -477 -351 -1061 -775 -583 -423 -1071 -784 -1084 -800 -12
-17 -29 -44 -36 -60 -11 -25 -14 -572 -18 -3001 l-5 -2971 -1110 474 c-610
260 -1485 634 -1942 829 l-833 356 0 4274 c0 2351 3 4274 8 4274 4 0 1374
-584 3045 -1297z m3267 -5996 l0 -4224 -942 -769 c-517 -423 -949 -775 -960
-782 -17 -13 -18 113 -18 4295 l0 4308 958 697 c526 383 958 697 960 697 1 1
2 -1900 2 -4222z m1639 2978 c485 -500 902 -927 928 -947 60 -47 131 -65 200
-51 26 5 952 391 2057 857 1105 465 2011 845 2013 843 1 -2 2 -1070 1 -2374
l-3 -2370 -3160 1382 -3160 1383 -3 1218 -2 1219 124 -125 c68 -69 520 -534
1005 -1035z m1851 -3139 c1592 -697 2898 -1270 2902 -1274 4 -4 -1314 -572
-2930 -1262 -1615 -689 -2940 -1255 -2944 -1257 -5 -2 -8 1143 -8 2546 l0
2550 43 -18 c23 -10 1345 -588 2937 -1285z m4983 -2059 l1367 -504 -3195
-1348 -3195 -1348 -1260 529 c-693 291 -1260 532 -1260 535 0 5 6157 2638
6170 2639 4 0 621 -227 1373 -503z"/>
<path d="M2540 9573 c-1 -119 31 -1310 36 -1359 l5 -51 72 -31 c40 -18 77 -32
83 -32 6 0 9 22 7 58 -1 31 -10 345 -18 697 -9 352 -17 655 -18 673 -2 32 -6
35 -80 68 -43 19 -80 34 -82 34 -3 0 -5 -26 -5 -57z"/>
<path d="M2821 9397 c1 -288 36 -1348 45 -1356 5 -5 30 -18 57 -29 l47 -21 0
47 c1 104 -31 1263 -36 1340 -6 89 -8 91 -89 122 l-25 10 1 -113z"/>
<path d="M3010 9363 c1 -74 107 -1411 113 -1420 8 -12 156 -67 163 -60 3 2
-20 327 -51 722 -30 394 -55 721 -55 725 0 7 -151 70 -166 70 -2 0 -4 -17 -4
-37z"/>
<path d="M3347 9173 c6 -174 33 -1197 33 -1281 l0 -82 35 -17 c19 -9 37 -14
40 -11 6 5 -16 882 -31 1295 l-6 172 -31 10 c-16 6 -33 11 -37 11 -4 0 -5 -44
-3 -97z"/>
<path d="M3535 9033 c6 -159 35 -1207 35 -1274 l0 -36 100 -43 c55 -24 103
-41 106 -38 5 5 -18 933 -32 1296 l-6 164 -83 38 c-45 21 -92 41 -104 45 l-23
7 7 -159z"/>
<path d="M3855 8893 c6 -174 35 -1203 35 -1269 0 -37 3 -42 36 -58 20 -9 38
-16 39 -14 2 2 -5 302 -16 668 -10 366 -19 695 -19 731 0 65 0 65 -35 82 -20
9 -38 17 -41 17 -3 0 -2 -71 1 -157z"/>
<path d="M4060 8907 c1 -214 41 -1411 47 -1417 11 -11 154 -72 158 -68 2 2 -5
305 -15 673 -11 369 -20 698 -20 732 0 57 -2 62 -27 71 -16 6 -54 22 -85 36
l-58 26 0 -53z"/>
<path d="M4340 8793 c0 -90 40 -1426 42 -1428 6 -5 101 -45 107 -45 3 0 -2
269 -11 597 -9 329 -17 658 -17 730 l-1 133 -37 19 c-21 10 -48 22 -60 25 -21
7 -23 4 -23 -31z"/>
<path d="M4615 8583 c7 -151 35 -1191 35 -1279 l0 -61 40 -16 c28 -11 40 -12
40 -4 0 7 -9 320 -20 697 -11 377 -20 702 -20 723 0 34 -4 40 -35 53 -19 7
-37 14 -40 14 -3 0 -3 -57 0 -127z"/>
<path d="M4820 8594 c0 -16 9 -337 20 -714 11 -377 20 -694 20 -706 0 -17 17
-29 81 -58 45 -20 83 -35 85 -33 2 2 -5 320 -16 708 -11 387 -20 716 -20 730
0 25 -29 43 -157 96 -9 3 -13 -4 -13 -23z"/>
</g>
</svg>
